<mxfile host="app.diagrams.net" modified="2024-03-09T17:21:32.988Z" agent="Mozilla/5.0 (Windows NT 10.0; Win64; x64) AppleWebKit/537.36 (KHTML, like Gecko) Chrome/122.0.0.0 Safari/537.36" etag="rC1rPEsq7hon5OwJSn3K" version="24.0.2" type="device">
  <diagram name="Página-1" id="DHEnoPzM3Es4B076AO54">
    <mxGraphModel dx="665" dy="960" grid="1" gridSize="10" guides="1" tooltips="1" connect="1" arrows="1" fold="1" page="1" pageScale="1" pageWidth="827" pageHeight="1169" math="0" shadow="0">
      <root>
        <mxCell id="0" />
        <mxCell id="1" parent="0" />
        <mxCell id="VE7Q1x32IpWVb3_EXXlQ-4" value="" style="edgeStyle=orthogonalEdgeStyle;rounded=0;orthogonalLoop=1;jettySize=auto;html=1;" edge="1" parent="1" source="VE7Q1x32IpWVb3_EXXlQ-1" target="VE7Q1x32IpWVb3_EXXlQ-3">
          <mxGeometry relative="1" as="geometry" />
        </mxCell>
        <mxCell id="VE7Q1x32IpWVb3_EXXlQ-1" value="Inicio" style="strokeWidth=2;html=1;shape=mxgraph.flowchart.start_1;whiteSpace=wrap;" vertex="1" parent="1">
          <mxGeometry x="364" y="270" width="100" height="60" as="geometry" />
        </mxCell>
        <mxCell id="VE7Q1x32IpWVb3_EXXlQ-6" value="" style="edgeStyle=orthogonalEdgeStyle;rounded=0;orthogonalLoop=1;jettySize=auto;html=1;" edge="1" parent="1" source="VE7Q1x32IpWVb3_EXXlQ-3" target="VE7Q1x32IpWVb3_EXXlQ-5">
          <mxGeometry relative="1" as="geometry" />
        </mxCell>
        <mxCell id="VE7Q1x32IpWVb3_EXXlQ-3" value="buffer" style="html=1;strokeWidth=2;shape=manualInput;whiteSpace=wrap;rounded=1;size=26;arcSize=11;" vertex="1" parent="1">
          <mxGeometry x="364" y="370" width="100" height="60" as="geometry" />
        </mxCell>
        <mxCell id="VE7Q1x32IpWVb3_EXXlQ-8" value="" style="edgeStyle=orthogonalEdgeStyle;rounded=0;orthogonalLoop=1;jettySize=auto;html=1;" edge="1" parent="1" source="VE7Q1x32IpWVb3_EXXlQ-5" target="VE7Q1x32IpWVb3_EXXlQ-7">
          <mxGeometry relative="1" as="geometry" />
        </mxCell>
        <mxCell id="VE7Q1x32IpWVb3_EXXlQ-5" value="buffer_size;&lt;div&gt;current = 0;&lt;/div&gt;&lt;div&gt;offset = 0;&lt;/div&gt;&lt;div&gt;state = S0&lt;/div&gt;" style="shape=parallelogram;html=1;strokeWidth=2;perimeter=parallelogramPerimeter;whiteSpace=wrap;rounded=1;arcSize=12;size=0.23;" vertex="1" parent="1">
          <mxGeometry x="351" y="480" width="126" height="70" as="geometry" />
        </mxCell>
        <mxCell id="VE7Q1x32IpWVb3_EXXlQ-21" value="" style="edgeStyle=orthogonalEdgeStyle;rounded=0;orthogonalLoop=1;jettySize=auto;html=1;" edge="1" parent="1" source="VE7Q1x32IpWVb3_EXXlQ-7" target="VE7Q1x32IpWVb3_EXXlQ-20">
          <mxGeometry relative="1" as="geometry" />
        </mxCell>
        <mxCell id="VE7Q1x32IpWVb3_EXXlQ-7" value="consumir&lt;div&gt;caracter&lt;/div&gt;" style="rounded=1;whiteSpace=wrap;html=1;absoluteArcSize=1;arcSize=14;strokeWidth=2;" vertex="1" parent="1">
          <mxGeometry x="364" y="620" width="100" height="100" as="geometry" />
        </mxCell>
        <mxCell id="VE7Q1x32IpWVb3_EXXlQ-13" value="" style="edgeStyle=orthogonalEdgeStyle;rounded=0;orthogonalLoop=1;jettySize=auto;html=1;" edge="1" parent="1" source="VE7Q1x32IpWVb3_EXXlQ-9" target="VE7Q1x32IpWVb3_EXXlQ-12">
          <mxGeometry relative="1" as="geometry" />
        </mxCell>
        <mxCell id="VE7Q1x32IpWVb3_EXXlQ-9" value="Inicio&lt;div&gt;Consumir Caracter&lt;/div&gt;" style="strokeWidth=2;html=1;shape=mxgraph.flowchart.start_1;whiteSpace=wrap;" vertex="1" parent="1">
          <mxGeometry x="770" y="270" width="100" height="60" as="geometry" />
        </mxCell>
        <mxCell id="VE7Q1x32IpWVb3_EXXlQ-15" value="" style="edgeStyle=orthogonalEdgeStyle;rounded=0;orthogonalLoop=1;jettySize=auto;html=1;" edge="1" parent="1" source="VE7Q1x32IpWVb3_EXXlQ-12" target="VE7Q1x32IpWVb3_EXXlQ-14">
          <mxGeometry relative="1" as="geometry" />
        </mxCell>
        <mxCell id="VE7Q1x32IpWVb3_EXXlQ-12" value="buffer[current]" style="strokeWidth=2;html=1;shape=mxgraph.flowchart.display;whiteSpace=wrap;" vertex="1" parent="1">
          <mxGeometry x="770" y="400" width="100" height="60" as="geometry" />
        </mxCell>
        <mxCell id="VE7Q1x32IpWVb3_EXXlQ-17" value="" style="edgeStyle=orthogonalEdgeStyle;rounded=0;orthogonalLoop=1;jettySize=auto;html=1;" edge="1" parent="1" source="VE7Q1x32IpWVb3_EXXlQ-14" target="VE7Q1x32IpWVb3_EXXlQ-16">
          <mxGeometry relative="1" as="geometry" />
        </mxCell>
        <mxCell id="VE7Q1x32IpWVb3_EXXlQ-14" value="current++" style="rounded=1;whiteSpace=wrap;html=1;absoluteArcSize=1;arcSize=14;strokeWidth=2;" vertex="1" parent="1">
          <mxGeometry x="770" y="534.5" width="100" height="100" as="geometry" />
        </mxCell>
        <mxCell id="VE7Q1x32IpWVb3_EXXlQ-16" value="fim" style="strokeWidth=2;html=1;shape=mxgraph.flowchart.terminator;whiteSpace=wrap;" vertex="1" parent="1">
          <mxGeometry x="770" y="690" width="100" height="60" as="geometry" />
        </mxCell>
        <mxCell id="VE7Q1x32IpWVb3_EXXlQ-36" value="" style="edgeStyle=orthogonalEdgeStyle;rounded=0;orthogonalLoop=1;jettySize=auto;html=1;" edge="1" parent="1" source="VE7Q1x32IpWVb3_EXXlQ-20" target="VE7Q1x32IpWVb3_EXXlQ-35">
          <mxGeometry relative="1" as="geometry" />
        </mxCell>
        <mxCell id="VE7Q1x32IpWVb3_EXXlQ-20" value="função de transição" style="rounded=1;whiteSpace=wrap;html=1;absoluteArcSize=1;arcSize=14;strokeWidth=2;" vertex="1" parent="1">
          <mxGeometry x="364" y="790" width="100" height="100" as="geometry" />
        </mxCell>
        <mxCell id="VE7Q1x32IpWVb3_EXXlQ-43" value="" style="edgeStyle=orthogonalEdgeStyle;rounded=0;orthogonalLoop=1;jettySize=auto;html=1;" edge="1" parent="1" source="VE7Q1x32IpWVb3_EXXlQ-22" target="VE7Q1x32IpWVb3_EXXlQ-42">
          <mxGeometry relative="1" as="geometry" />
        </mxCell>
        <mxCell id="VE7Q1x32IpWVb3_EXXlQ-22" value="Inicio&lt;div&gt;função de transição&lt;/div&gt;" style="strokeWidth=2;html=1;shape=mxgraph.flowchart.start_1;whiteSpace=wrap;" vertex="1" parent="1">
          <mxGeometry x="1180" y="270" width="100" height="60" as="geometry" />
        </mxCell>
        <mxCell id="VE7Q1x32IpWVb3_EXXlQ-26" value="Sim" style="edgeStyle=orthogonalEdgeStyle;rounded=0;orthogonalLoop=1;jettySize=auto;html=1;" edge="1" parent="1" source="VE7Q1x32IpWVb3_EXXlQ-23" target="VE7Q1x32IpWVb3_EXXlQ-25">
          <mxGeometry relative="1" as="geometry" />
        </mxCell>
        <mxCell id="VE7Q1x32IpWVb3_EXXlQ-29" value="Não" style="edgeStyle=orthogonalEdgeStyle;rounded=0;orthogonalLoop=1;jettySize=auto;html=1;" edge="1" parent="1" source="VE7Q1x32IpWVb3_EXXlQ-23" target="VE7Q1x32IpWVb3_EXXlQ-28">
          <mxGeometry relative="1" as="geometry" />
        </mxCell>
        <mxCell id="VE7Q1x32IpWVb3_EXXlQ-23" value="se buffer[current]&lt;div&gt;possui uma função de transição&lt;/div&gt;" style="strokeWidth=2;html=1;shape=mxgraph.flowchart.decision;whiteSpace=wrap;" vertex="1" parent="1">
          <mxGeometry x="1165" y="565" width="130" height="140" as="geometry" />
        </mxCell>
        <mxCell id="VE7Q1x32IpWVb3_EXXlQ-51" style="edgeStyle=orthogonalEdgeStyle;rounded=0;orthogonalLoop=1;jettySize=auto;html=1;exitX=1;exitY=0.5;exitDx=0;exitDy=0;" edge="1" parent="1" source="VE7Q1x32IpWVb3_EXXlQ-25">
          <mxGeometry relative="1" as="geometry">
            <mxPoint x="1680" y="800" as="targetPoint" />
          </mxGeometry>
        </mxCell>
        <mxCell id="VE7Q1x32IpWVb3_EXXlQ-25" value="state = próximo estado válido;" style="rounded=1;whiteSpace=wrap;html=1;absoluteArcSize=1;arcSize=14;strokeWidth=2;" vertex="1" parent="1">
          <mxGeometry x="1405" y="585" width="100" height="100" as="geometry" />
        </mxCell>
        <mxCell id="VE7Q1x32IpWVb3_EXXlQ-52" style="edgeStyle=orthogonalEdgeStyle;rounded=0;orthogonalLoop=1;jettySize=auto;html=1;exitX=1;exitY=0.5;exitDx=0;exitDy=0;" edge="1" parent="1" source="VE7Q1x32IpWVb3_EXXlQ-28" target="VE7Q1x32IpWVb3_EXXlQ-49">
          <mxGeometry relative="1" as="geometry" />
        </mxCell>
        <mxCell id="VE7Q1x32IpWVb3_EXXlQ-28" value="gera erro" style="rounded=1;whiteSpace=wrap;html=1;absoluteArcSize=1;arcSize=14;strokeWidth=2;" vertex="1" parent="1">
          <mxGeometry x="1180" y="780" width="100" height="100" as="geometry" />
        </mxCell>
        <mxCell id="VE7Q1x32IpWVb3_EXXlQ-37" value="Não" style="edgeStyle=orthogonalEdgeStyle;rounded=0;orthogonalLoop=1;jettySize=auto;html=1;exitX=1;exitY=0.5;exitDx=0;exitDy=0;exitPerimeter=0;entryX=0.5;entryY=0;entryDx=0;entryDy=0;" edge="1" parent="1" source="VE7Q1x32IpWVb3_EXXlQ-35" target="VE7Q1x32IpWVb3_EXXlQ-7">
          <mxGeometry x="-0.8081" relative="1" as="geometry">
            <Array as="points">
              <mxPoint x="620" y="1010" />
              <mxPoint x="620" y="600" />
              <mxPoint x="414" y="600" />
            </Array>
            <mxPoint as="offset" />
          </mxGeometry>
        </mxCell>
        <mxCell id="VE7Q1x32IpWVb3_EXXlQ-39" value="" style="edgeStyle=orthogonalEdgeStyle;rounded=0;orthogonalLoop=1;jettySize=auto;html=1;" edge="1" parent="1" source="VE7Q1x32IpWVb3_EXXlQ-35" target="VE7Q1x32IpWVb3_EXXlQ-38">
          <mxGeometry relative="1" as="geometry" />
        </mxCell>
        <mxCell id="VE7Q1x32IpWVb3_EXXlQ-35" value="current == buffer_size" style="strokeWidth=2;html=1;shape=mxgraph.flowchart.decision;whiteSpace=wrap;" vertex="1" parent="1">
          <mxGeometry x="364" y="960" width="100" height="100" as="geometry" />
        </mxCell>
        <mxCell id="VE7Q1x32IpWVb3_EXXlQ-41" value="" style="edgeStyle=orthogonalEdgeStyle;rounded=0;orthogonalLoop=1;jettySize=auto;html=1;" edge="1" parent="1" source="VE7Q1x32IpWVb3_EXXlQ-38" target="VE7Q1x32IpWVb3_EXXlQ-40">
          <mxGeometry relative="1" as="geometry" />
        </mxCell>
        <mxCell id="VE7Q1x32IpWVb3_EXXlQ-38" value="Gera token EOF" style="rounded=1;whiteSpace=wrap;html=1;absoluteArcSize=1;arcSize=14;strokeWidth=2;" vertex="1" parent="1">
          <mxGeometry x="364" y="1130" width="100" height="100" as="geometry" />
        </mxCell>
        <mxCell id="VE7Q1x32IpWVb3_EXXlQ-40" value="fim" style="strokeWidth=2;html=1;shape=mxgraph.flowchart.terminator;whiteSpace=wrap;" vertex="1" parent="1">
          <mxGeometry x="364" y="1300" width="100" height="60" as="geometry" />
        </mxCell>
        <mxCell id="VE7Q1x32IpWVb3_EXXlQ-44" value="não" style="edgeStyle=orthogonalEdgeStyle;rounded=0;orthogonalLoop=1;jettySize=auto;html=1;" edge="1" parent="1" source="VE7Q1x32IpWVb3_EXXlQ-42" target="VE7Q1x32IpWVb3_EXXlQ-23">
          <mxGeometry relative="1" as="geometry" />
        </mxCell>
        <mxCell id="VE7Q1x32IpWVb3_EXXlQ-42" value="state é um estado de aceite" style="strokeWidth=2;html=1;shape=mxgraph.flowchart.decision;whiteSpace=wrap;" vertex="1" parent="1">
          <mxGeometry x="1180" y="400" width="100" height="100" as="geometry" />
        </mxCell>
        <mxCell id="VE7Q1x32IpWVb3_EXXlQ-48" style="edgeStyle=orthogonalEdgeStyle;rounded=0;orthogonalLoop=1;jettySize=auto;html=1;exitX=0.5;exitY=0;exitDx=0;exitDy=0;entryX=0.5;entryY=1;entryDx=0;entryDy=0;" edge="1" parent="1" source="VE7Q1x32IpWVb3_EXXlQ-45" target="VE7Q1x32IpWVb3_EXXlQ-47">
          <mxGeometry relative="1" as="geometry" />
        </mxCell>
        <mxCell id="VE7Q1x32IpWVb3_EXXlQ-45" value="Gerar token" style="rounded=1;whiteSpace=wrap;html=1;absoluteArcSize=1;arcSize=14;strokeWidth=2;" vertex="1" parent="1">
          <mxGeometry x="1405" y="190" width="100" height="100" as="geometry" />
        </mxCell>
        <mxCell id="VE7Q1x32IpWVb3_EXXlQ-63" value="" style="edgeStyle=orthogonalEdgeStyle;rounded=0;orthogonalLoop=1;jettySize=auto;html=1;" edge="1" parent="1" source="VE7Q1x32IpWVb3_EXXlQ-47" target="VE7Q1x32IpWVb3_EXXlQ-62">
          <mxGeometry relative="1" as="geometry" />
        </mxCell>
        <mxCell id="VE7Q1x32IpWVb3_EXXlQ-47" value="state = S0" style="rounded=1;whiteSpace=wrap;html=1;absoluteArcSize=1;arcSize=14;strokeWidth=2;" vertex="1" parent="1">
          <mxGeometry x="1405" y="20" width="100" height="100" as="geometry" />
        </mxCell>
        <mxCell id="VE7Q1x32IpWVb3_EXXlQ-54" style="edgeStyle=orthogonalEdgeStyle;rounded=0;orthogonalLoop=1;jettySize=auto;html=1;exitX=0.5;exitY=1;exitDx=0;exitDy=0;exitPerimeter=0;" edge="1" parent="1" source="VE7Q1x32IpWVb3_EXXlQ-49" target="VE7Q1x32IpWVb3_EXXlQ-53">
          <mxGeometry relative="1" as="geometry" />
        </mxCell>
        <mxCell id="VE7Q1x32IpWVb3_EXXlQ-49" value="" style="verticalLabelPosition=bottom;verticalAlign=top;html=1;shape=mxgraph.flowchart.or;" vertex="1" parent="1">
          <mxGeometry x="1645" y="795" width="70" height="70" as="geometry" />
        </mxCell>
        <mxCell id="VE7Q1x32IpWVb3_EXXlQ-53" value="fim" style="strokeWidth=2;html=1;shape=mxgraph.flowchart.terminator;whiteSpace=wrap;" vertex="1" parent="1">
          <mxGeometry x="1630" y="960" width="100" height="60" as="geometry" />
        </mxCell>
        <mxCell id="VE7Q1x32IpWVb3_EXXlQ-57" value="não" style="edgeStyle=orthogonalEdgeStyle;rounded=0;orthogonalLoop=1;jettySize=auto;html=1;exitX=0.5;exitY=0;exitDx=0;exitDy=0;exitPerimeter=0;" edge="1" parent="1" source="VE7Q1x32IpWVb3_EXXlQ-55" target="VE7Q1x32IpWVb3_EXXlQ-45">
          <mxGeometry relative="1" as="geometry" />
        </mxCell>
        <mxCell id="VE7Q1x32IpWVb3_EXXlQ-55" value="verifica se o próximo caracter pertence a V" style="strokeWidth=2;html=1;shape=mxgraph.flowchart.decision;whiteSpace=wrap;" vertex="1" parent="1">
          <mxGeometry x="1405" y="400" width="100" height="100" as="geometry" />
        </mxCell>
        <mxCell id="VE7Q1x32IpWVb3_EXXlQ-56" value="sim" style="edgeStyle=orthogonalEdgeStyle;rounded=0;orthogonalLoop=1;jettySize=auto;html=1;exitX=1;exitY=0.5;exitDx=0;exitDy=0;exitPerimeter=0;entryX=0;entryY=0.5;entryDx=0;entryDy=0;entryPerimeter=0;" edge="1" parent="1" source="VE7Q1x32IpWVb3_EXXlQ-42" target="VE7Q1x32IpWVb3_EXXlQ-55">
          <mxGeometry relative="1" as="geometry" />
        </mxCell>
        <mxCell id="VE7Q1x32IpWVb3_EXXlQ-58" style="edgeStyle=orthogonalEdgeStyle;rounded=0;orthogonalLoop=1;jettySize=auto;html=1;entryX=0.5;entryY=0;entryDx=0;entryDy=0;entryPerimeter=0;exitX=0.5;exitY=1;exitDx=0;exitDy=0;" edge="1" parent="1" source="VE7Q1x32IpWVb3_EXXlQ-62" target="VE7Q1x32IpWVb3_EXXlQ-49">
          <mxGeometry relative="1" as="geometry">
            <mxPoint x="1680" y="270" as="sourcePoint" />
          </mxGeometry>
        </mxCell>
        <mxCell id="VE7Q1x32IpWVb3_EXXlQ-59" value="state = S62" style="rounded=1;whiteSpace=wrap;html=1;absoluteArcSize=1;arcSize=14;strokeWidth=2;" vertex="1" parent="1">
          <mxGeometry x="1790" y="400" width="100" height="100" as="geometry" />
        </mxCell>
        <mxCell id="VE7Q1x32IpWVb3_EXXlQ-61" style="edgeStyle=orthogonalEdgeStyle;rounded=0;orthogonalLoop=1;jettySize=auto;html=1;exitX=0.5;exitY=1;exitDx=0;exitDy=0;entryX=1;entryY=0.5;entryDx=0;entryDy=0;entryPerimeter=0;" edge="1" parent="1" source="VE7Q1x32IpWVb3_EXXlQ-59" target="VE7Q1x32IpWVb3_EXXlQ-49">
          <mxGeometry relative="1" as="geometry" />
        </mxCell>
        <mxCell id="VE7Q1x32IpWVb3_EXXlQ-60" value="sim" style="edgeStyle=orthogonalEdgeStyle;rounded=0;orthogonalLoop=1;jettySize=auto;html=1;exitX=1;exitY=0.5;exitDx=0;exitDy=0;exitPerimeter=0;flowAnimation=0;curved=0;strokeColor=default;jumpStyle=arc;" edge="1" parent="1" source="VE7Q1x32IpWVb3_EXXlQ-55" target="VE7Q1x32IpWVb3_EXXlQ-59">
          <mxGeometry relative="1" as="geometry" />
        </mxCell>
        <mxCell id="VE7Q1x32IpWVb3_EXXlQ-62" value="offset = current" style="rounded=1;whiteSpace=wrap;html=1;absoluteArcSize=1;arcSize=14;strokeWidth=2;" vertex="1" parent="1">
          <mxGeometry x="1630" y="20" width="100" height="100" as="geometry" />
        </mxCell>
      </root>
    </mxGraphModel>
  </diagram>
</mxfile>
